<!DOCTYPE svg PUBLIC "-//W3C//DTD SVG 1.1//EN" "http://www.w3.org/Graphics/SVG/1.1/DTD/svg11.dtd">
<!-- Uploaded to: SVG Repo, www.svgrepo.com, Transformed by: SVG Repo Mixer Tools -->
<svg fill="#09bc64" version="1.1" id="Capa_1" xmlns="http://www.w3.org/2000/svg" xmlns:xlink="http://www.w3.org/1999/xlink" width="800px" height="800px" viewBox="0 0 417.165 417.165" xml:space="preserve" stroke="#09bc64">
<g id="SVGRepo_bgCarrier" stroke-width="0"/>
<g id="SVGRepo_tracerCarrier" stroke-linecap="round" stroke-linejoin="round"/>
<g id="SVGRepo_iconCarrier"> <g> <g> <path d="M390.938,336.529c-17.386-18.646-36.671-66.385-78.671-96.409c-7.879-5.632-15.633-9.572-23.104-12.198 c0.322-0.312,0.658-0.604,0.977-0.924l71.072-71.072c29.084-29.086,29.084-76.41,0-105.494l-11.549-11.547 c-29.084-29.086-76.408-29.086-105.492-0.002l-71.072,71.074c-16.043,16.041-23.217,37.631-21.563,58.65 c-21.02-1.654-42.609,5.52-58.65,21.563l-71.074,71.072C-7.272,290.326-7.27,337.65,21.814,366.734l11.546,11.549 c29.086,29.084,76.41,29.084,105.494,0l70.566-70.567c55.534,78.646,154.997,64.971,197.36,54.687 c12.469-3.027,13.241-6.044,4.818-10.479C405.559,348.743,398.101,344.21,390.938,336.529z M198.216,135.074L269.288,64 c15.234-15.234,40.021-15.234,55.258,0l11.549,11.549c15.234,15.236,15.234,40.023,0,55.258l-71.07,71.074 c-12.896,12.896-32.635,14.873-47.633,5.939l29.459-29.459c6.938-6.936,6.938-18.18,0-25.115 c-6.936-6.938-18.182-6.938-25.116-0.002l-29.458,29.459C183.343,167.705,185.321,147.968,198.216,135.074z M184.81,282.094 l-71.074,71.071c-15.234,15.234-40.021,15.234-55.258,0l-11.547-11.549c-15.236-15.233-15.234-40.022-0.002-55.258l71.074-71.072 c12.895-12.895,32.631-14.873,47.629-5.94l-29.459,29.459c-6.936,6.937-6.936,18.182,0,25.116c6.938,6.937,18.182,6.937,25.117,0 l29.459-29.459C199.681,249.461,197.704,269.199,184.81,282.094z M347.538,325.695c-7.129-5.293-14.252-12.131-19.752-17.971 c-5.688-5.775-10.539-10.469-13.195-13.104c-2.688-2.582-10.842-10.91-23.658-18.591c-6.516-3.879-13.771-7.321-22.562-10.565 c-7.613-3.187-16.396-4.457-25.152-4.027c-4.057,0.2-8.067,0.709-11.987,1.43c0.433-3.865,0.565-7.756,0.397-11.639 c3.697-0.439,7.483-0.711,11.342-0.746c42.896,1.765,71.809,33.58,77.137,38.631c2.766,2.744,7.4,7.926,12.576,14.226 c5.104,6.479,10.852,13.28,17.438,19.438c12.668,12.404,25.283,22.201,25.271,22.174 C375.399,344.973,361.683,336.799,347.538,325.695z"/> </g> </g> </g>
</svg>